<svg version="1.1" id="Layer_1" xmlns="http://www.w3.org/2000/svg" x="0" y="0" viewBox="0 0 55 55" xml:space="preserve"><style>.st0{fill:#eef3c6}</style><path class="st0" d="M42.1 9.9c-1.8 0-3.2 1.4-3.2 3.2s1.4 3.2 3.2 3.2 3.2-1.4 3.2-3.2-1.5-3.2-3.2-3.2zM27.8 14c-7.5 0-13.5 6.1-13.5 13.5-.1 7.5 6 13.5 13.5 13.5s13.5-6.1 13.5-13.5C41.3 20 35.2 14 27.8 14zm0 22.2c-4.8 0-8.7-3.9-8.7-8.7s3.9-8.7 8.7-8.7 8.7 3.9 8.7 8.7-4 8.7-8.7 8.7z"/><path class="st0" d="M38.5 54.9H16.6C7.5 54.9.1 47.5.1 38.4V16.5C.1 7.4 7.5 0 16.6 0h21.9C47.6.1 55 7.4 55 16.5v21.9c0 9.1-7.4 16.5-16.5 16.5zM16.6 5.2c-6.2 0-11.3 5.1-11.3 11.3v21.9c0 6.2 5.1 11.3 11.3 11.3h21.9c6.2 0 11.3-5.1 11.3-11.3V16.5c0-6.2-5.1-11.3-11.3-11.3H16.6z"/></svg>