<svg xmlns="http://www.w3.org/2000/svg" viewBox="0 0 59 49"><path d="M58.7 6c-1.9.8-3.9 1.4-6 1.7 1-.2 2.4-1.9 2.9-2.6.9-1.1 1.6-2.3 2-3.6.1-.1.1-.2 0-.3-.1-.1-.2 0-.3 0-2.3 1.2-4.6 2.1-7.1 2.7-.2.1-.4 0-.5-.1-.2-.2-.4-.5-.6-.6-1-.9-2.2-1.6-3.4-2.1-1.7-.7-3.5-1-5.3-.8-1.7.1-3.4.6-5 1.4-1.5.8-2.9 1.9-4 3.3s-2 3.1-2.4 4.8c-.4 1.7-.4 3.4-.1 5.1 0 .3 0 .3-.2.3-9.7-1.6-17.8-5-24.3-12.5-.3-.3-.4-.3-.7 0C.8 7 2.2 13.9 5.8 17.3c.5.5 1 .9 1.5 1.3-.2 0-2.6-.2-4.7-1.3-.3-.2-.4-.1-.5.2 0 .5 0 .9.1 1.4.5 4.3 3.6 8.4 7.7 9.9.5.2 1 .4 1.6.5-.9.2-1.9.4-4.6.1-.3-.1-.5.1-.3.4 2 5.5 6.4 7.2 9.7 8.1.4.1.9.1 1.3.2 0 0-.1 0-.1.1-1.1 1.7-4.8 2.9-6.6 3.5-3.2 1.1-6.7 1.6-10 1.3-.6 0-.7 0-.9.1-.1.1 0 .2.2.4.7.5 1.4.9 2.1 1.2 2.1 1.1 4.4 2 6.7 2.7 12 3.3 25.6.9 34.6-8.1 7.1-7.1 9.6-16.8 9.6-26.5 0-.4.4-.6.7-.8 1.8-1.4 3.3-3 4.7-4.9.3-.4.3-.8.3-.9v-.1c0-.2 0-.2-.2-.1z" fill="#294730"/></svg>