<?xml version="1.0" encoding="utf-8"?>
<!-- Generator: Adobe Illustrator 26.0.3, SVG Export Plug-In . SVG Version: 6.00 Build 0)  -->
<svg version="1.1" id="Layer_1" xmlns="http://www.w3.org/2000/svg" xmlns:xlink="http://www.w3.org/1999/xlink" x="0px" y="0px"
	 viewBox="0 0 55 55" style="enable-background:new 0 0 55 55;" xml:space="preserve">
<style type="text/css">
	.st0{fill:#294730;}
</style>
<g>
	<g>
		<path class="st0" d="M42.1,9.9c-1.8,0-3.2,1.4-3.2,3.2c0,1.8,1.4,3.2,3.2,3.2c1.8,0,3.2-1.4,3.2-3.2C45.3,11.3,43.8,9.9,42.1,9.9z
			"/>
		<path class="st0" d="M27.8,14c-7.5,0-13.5,6.1-13.5,13.5C14.2,35,20.3,41,27.8,41c7.5,0,13.5-6.1,13.5-13.5
			C41.3,20,35.2,14,27.8,14z M27.8,36.2c-4.8,0-8.7-3.9-8.7-8.7s3.9-8.7,8.7-8.7c4.8,0,8.7,3.9,8.7,8.7S32.5,36.2,27.8,36.2z"/>
		<path class="st0" d="M38.5,54.9H16.6c-9.1,0-16.5-7.4-16.5-16.5V16.5c0-9.1,7.4-16.5,16.5-16.5h21.9C47.6,0.1,55,7.4,55,16.5v21.9
			C55,47.5,47.6,54.9,38.5,54.9z M16.6,5.2c-6.2,0-11.3,5.1-11.3,11.3v21.9c0,6.2,5.1,11.3,11.3,11.3h21.9c6.2,0,11.3-5.1,11.3-11.3
			V16.5c0-6.2-5.1-11.3-11.3-11.3H16.6z"/>
	</g>
</g>
</svg>
