<?xml version="1.0" encoding="utf-8"?>
<!-- Generator: Adobe Illustrator 26.0.3, SVG Export Plug-In . SVG Version: 6.00 Build 0)  -->
<svg version="1.1" id="Layer_1" xmlns="http://www.w3.org/2000/svg" xmlns:xlink="http://www.w3.org/1999/xlink" x="0px" y="0px"
	 viewBox="0 0 59 49" style="enable-background:new 0 0 59 49;" xml:space="preserve">
<style type="text/css">
	.st0{fill:#EEF3C6;}
</style>
<path class="st0" d="M58.7,6c-1.9,0.8-3.9,1.4-6,1.7c1-0.2,2.4-1.9,2.9-2.6c0.9-1.1,1.6-2.3,2-3.6c0.1-0.1,0.1-0.2,0-0.3
	c-0.1-0.1-0.2,0-0.3,0c-2.3,1.2-4.6,2.1-7.1,2.7c-0.2,0.1-0.4,0-0.5-0.1c-0.2-0.2-0.4-0.5-0.6-0.6c-1-0.9-2.2-1.6-3.4-2.1
	c-1.7-0.7-3.5-1-5.3-0.8c-1.7,0.1-3.4,0.6-5,1.4c-1.5,0.8-2.9,1.9-4,3.3c-1.1,1.4-2,3.1-2.4,4.8c-0.4,1.7-0.4,3.4-0.1,5.1
	c0,0.3,0,0.3-0.2,0.3C19,13.6,10.9,10.2,4.4,2.7c-0.3-0.3-0.4-0.3-0.7,0C0.8,7,2.2,13.9,5.8,17.3c0.5,0.5,1,0.9,1.5,1.3
	c-0.2,0-2.6-0.2-4.7-1.3c-0.3-0.2-0.4-0.1-0.5,0.2c0,0.5,0,0.9,0.1,1.4c0.5,4.3,3.6,8.4,7.7,9.9c0.5,0.2,1,0.4,1.6,0.5
	c-0.9,0.2-1.9,0.4-4.6,0.1c-0.3-0.1-0.5,0.1-0.3,0.4c2,5.5,6.4,7.2,9.7,8.1c0.4,0.1,0.9,0.1,1.3,0.2c0,0-0.1,0-0.1,0.1
	c-1.1,1.7-4.8,2.9-6.6,3.5c-3.2,1.1-6.7,1.6-10,1.3C0.3,43,0.2,43,0,43.1c-0.1,0.1,0,0.2,0.2,0.4c0.7,0.5,1.4,0.9,2.1,1.2
	c2.1,1.1,4.4,2,6.7,2.7c12,3.3,25.6,0.9,34.6-8.1c7.1-7.1,9.6-16.8,9.6-26.5c0-0.4,0.4-0.6,0.7-0.8c1.8-1.4,3.3-3,4.7-4.9
	c0.3-0.4,0.3-0.8,0.3-0.9c0,0,0-0.1,0-0.1C58.9,5.9,58.9,5.9,58.7,6z"/>
</svg>
